<svg width="24" height="24" viewBox="0 0 24 24" fill="none" xmlns="http://www.w3.org/2000/svg">
    <path d="M12 22C17.5228 22 22 17.5228 22 12C22 6.47715 17.5228 2 12 2C6.47715 2 2 6.47715 2 12C2 17.5228 6.47715 22 12 22Z" fill="currentColor"/>
    <path d="M8.99974 13.1798L15.5097 16.3098C16.0497 16.5598 16.4697 16.3898 16.5997 15.7998L18.9297 7.70984C19.1297 6.91984 18.5997 6.54984 17.9197 6.83984L5.43974 11.6198C4.70974 11.9298 4.71974 12.3798 5.32974 12.5798L7.80974 13.4298L15.4497 8.82984C15.7697 8.63984 16.0697 8.73984 15.8297 8.96984L8.99974 13.1798Z" fill="white"/>
</svg>